<?xml version="1.0" encoding="UTF-8" standalone="no"?>
<svg height="135.75" viewBox="0 0 135.75 351.14999" width="135.75" xmlns="http://www.w3.org/2000/svg">
<defs>
<linearGradient gradientUnits="userSpaceOnUse" x1="240.07608" x2="346.46616">
<stop offset="0" stop-color="#c3c3bd"/>
<stop offset=".21617" stop-color="#fbfbfa"/>
<stop offset=".43206" stop-color="#dbdbd7"/>
<stop offset="1" stop-color="#b8b8b0"/>
</linearGradient>
<linearGradient gradientUnits="userSpaceOnUse" spreadMethod="reflect" x1="193.31837" x2="272.58297" y1="370.89507" y2="382.89506">
<stop offset="0" stop-color="#999"/>
<stop offset=".9" stop-color="#fff"/>
<stop offset="1" stop-color="#fff"/>
</linearGradient>
<radialGradient cx="126.55726" cy="230.43263" gradientTransform="matrix(.36085,.48566,-.18145,.35815,272.95549,136.88858)" gradientUnits="userSpaceOnUse" r="128.40042">
<stop offset="0" stop-color="#fff"/>
<stop offset="1" stop-color="#cecec9"/>
</radialGradient>
</defs>
<title>J Is For Jar</title>
<g stroke="#000" stroke-width="3" transform="translate(474.00423,-772.7748)">
<path d="m-348.3167,928.55663c-9.05445-14.98718-36.6974-15.86229-57.97963-16.84614-31.35519,0-56.92079,7.28831-57.94848,16.37595" fill="none" stroke="#000" stroke-linecap="round" stroke-linejoin="round" stroke-opacity=".10465" stroke-width="3"/>
<path d="m-413.56109,955.03847c-9.15054-.7769-16.66944-1.9787-22.67078-3.6235-16.46711-4.5131-26.90355-12.166-28.52638-20.9179-.21133-1.1397-.3299-21.8007-.3299-57.4856 0-48.98285.0611-55.94117.50632-57.65045 .60205-2.31141 1.82268-4.64615 3.38064-6.46628l1.13395-1.32477 .0494-7.0102c.0563-7.98786.21954-8.61269 3.08254-11.79703 9.36119-10.4119 40.88971-16.04266 69.13775-12.3475 14.64658,1.91595 26.4902,6.23999 32.10967,11.72309 3.55788,3.47153 3.71826,4.00575 3.7781,12.58499l.05,7.17377 .98948,1.20042c1.44547,1.7536 2.61762,4.05258 3.19349,6.26351 .44521,1.70928.50632,8.6676.50632,57.65045 0,35.6849-.11857,56.3459-.3299,57.4856-2.15273,11.6097-19.3562,20.8539-44.51853,23.9217-3.95856.4827-18.29815.8952-21.54219.6197zm18.00143-2.1361c22.23623-1.9142 40.15807-9.5873 45.08618-19.3034l1.15605-2.2792v-57.9851-57.9852l-.70619-1.48635c-.3884-.8175-1.18147-2.13434-1.76236-2.92632l-1.05617-1.43996-1.08228,1.60511c-4.69134,6.95763-20.8427,12.64481-40.64432,14.31158-5.08592.4281-17.67694.42964-22.79081.003-14.96289-1.24878-28.18342-4.8674-35.4621-9.70626-2.1261-1.41343-5.08952-4.23353-5.93215-5.64526-.37878-.6346-.43372-.6151-1.39564.49545-.55073.63583-1.40417,1.97355-1.89653,2.97272l-.89521,1.81665v57.9852 57.9851l1.15606,2.2792c4.85566,9.5733 22.83365,17.3676 44.45141,19.2719 4.6958.4137 17.12572.4317 21.77406.031zm4.95453-129.60421c17.34736-2.10756 30.13547-6.79093 34.89051-12.77788 1.65973-2.08973 1.97962-3.05627 2.17318-6.56621l.17304-3.13787-2.10328,2.05016c-4.89592,4.77227-13.11396,8.27064-25.05925,10.66759-8.79276,1.76436-13.23386,2.13763-25.43323,2.13763s-16.62532-.37205-25.44827-2.13848c-11.60581-2.32358-19.69904-5.71129-24.60252-10.29825l-2.13687-1.99894v3.02375c0,2.39328.14073,3.29958.67491,4.34667 2.1085,4.13299 7.54877,7.61431 16.50078,10.55914 6.98852,2.29891 15.08333,3.82911 24.27717,4.58921 5.30417.43852 20.98485.16418 26.09383-.45652zm0-9.91205c14.2385-1.73983 24.97847-5.01781 31.3598-9.57144 7.24044-5.16666 7.38944-11.21937.3983-16.17943-9.49338-6.73532-26.47966-10.53236-47.11713-10.53236-17.70376,0-32.67645,2.77399-42.64328,7.90051-6.52065,3.35395-9.54438,6.74243-9.54438,10.69569 0,5.15548 5.9773,9.87355 17.17569,13.55734 6.98852,2.29891 15.08333,3.82911 24.27717,4.58921 5.32416.44017 20.98839.16432 26.09383-.45952z" stroke="#000" stroke-width="3"/>
</g>
</svg>
