<?xml version="1.0" encoding="UTF-8" standalone="no"?>
<svg width="130" xmlns="http://www.w3.org/2000/svg" xmlns:xlink="http://www.w3.org/1999/xlink" height="190">
 <defs>
  <linearGradient id="linearGradient6466" y2=".5" y1=".5">
   <stop id="stop6470" stop-color="#c3c3bd" offset="0"/>
   <stop id="stop6472" stop-color="#fbfbfa" offset=".21617"/>
   <stop id="stop6475" stop-color="#dbdbd7" offset=".43206"/>
   <stop id="stop6477" stop-color="#b8b8b0" offset="1"/>
  </linearGradient>
  <radialGradient id="radialGradient6479" gradientUnits="userSpaceOnUse" cy="230.43" cx="126.56" gradientTransform="matrix(.36085 .48566 -.18145 .35815 272.96 136.89)" r="128.4">
   <stop id="stop5792" stop-color="#fff" offset="0"/>
   <stop id="stop5794" stop-color="#cecec9" offset="1"/>
  </radialGradient>
 </defs>
 <g stroke="#000">
  <g id="layer4" stroke-linejoin="round" fill-rule="evenodd" fill-opacity=".164" stroke-linecap="round" stroke-width="1.867" fill="#fce700">
   <path id="path3022" d="m65.913 23.177c-31.355 0-56.921 11.212-57.948 25.192h-0.031158v110.49c0 14.384 25.973 26.049 57.98 26.049s57.98-11.665 57.98-26.049v-110.49h-0.031128c-1.0272-13.98-26.593-25.192-57.948-25.192z"/>
   <path id="path3924" stroke-opacity=".246" d="m123.89 157.69c-9.0544-14.987-36.697-15.862-57.98-16.846-31.355 0-56.921 7.2883-57.948 16.376"/>
  </g>
  <g id="layer2" stroke-width="1.757">
   <path id="path5379" fill="url(#linearGradient6466)" d="m119.3 26.352c-40.848-2.2901-60.268-4.0445-106.39 0v9.7347c-0.001526 0.060822 0 0.12012 0 0.18109 0 10.752 23.831 19.47 53.194 19.47s53.194-8.7173 53.194-19.47c0-0.060974 0.001556-0.12027 0-0.18109v-9.7347z"/>
   <path id="path5381" fill="url(#radialGradient6479)" d="m119.29 26.357c0 10.752-23.831 19.479-53.194 19.479s-53.194-8.7265-53.194-19.479 23.831-19.479 53.194-19.479 53.194 8.7265 53.194 19.479z"/>
  </g>
 </g>
</svg>
